<?xml version="1.0" encoding="utf-8"?><!-- Uploaded to: SVG Repo, www.svgrepo.com, Generator: SVG Repo Mixer Tools -->
<svg width="800px" height="800px" viewBox="0 0 800 800" id="scan-alt" data-name="Flat Color" xmlns="http://www.w3.org/2000/svg" class="icon flat-color">
<!--  <path id="secondary" d="M12,17a1,1,0,0,1-1-1V8a1,1,0,0,1,2,0v8A1,1,0,0,1,12,17Zm4-2a1,1,0,0,1-1-1V10a1,1,0,0,1,2,0v4A1,1,0,0,1,16,15ZM8,15a1,1,0,0,1-1-1V10a1,1,0,0,1,2,0v4A1,1,0,0,1,8,15Z" style="fill: rgb(44, 169, 188);"></path>-->
<!--  <path id="primary" d="M20,22H16a1,1,0,0,1,0-2h4V16a1,1,0,0,1,2,0v4A2,2,0,0,1,20,22ZM9,21a1,1,0,0,0-1-1H4V16a1,1,0,0,0-2,0v4a2,2,0,0,0,2,2H8A1,1,0,0,0,9,21ZM4,8V4H8A1,1,0,0,0,8,2H4A2,2,0,0,0,2,4V8A1,1,0,0,0,4,8ZM22,8V4a2,2,0,0,0-2-2H16a1,1,0,0,0,0,2h4V8a1,1,0,0,0,2,0Z" style="fill: rgb(0, 0, 0);"></path>-->
<!--  <path class="a" d="m400 566.7c-4.4 0-8.7-0.9-12.8-2.6-4-1.6-7.7-4.1-10.8-7.2-3.1-3.1-5.5-6.8-7.2-10.8-1.7-4.1-2.5-8.4-2.5-12.8v-266.6c0-8.9 3.5-17.4 9.7-23.6 6.3-6.3 14.8-9.8 23.6-9.8 8.8 0 17.3 3.5 23.6 9.8 6.2 6.2 9.7 14.7 9.7 23.6v266.6c0 4.4-0.8 8.7-2.5 12.8-1.7 4-4.1 7.7-7.2 10.8-3.1 3.1-6.8 5.6-10.8 7.2-4.1 1.7-8.4 2.6-12.8 2.6zm133.3-66.7c-4.3 0-8.7-0.9-12.7-2.5-4.1-1.7-7.7-4.2-10.8-7.3-3.1-3.1-5.6-6.7-7.3-10.8-1.6-4-2.5-8.4-2.5-12.7v-133.4c0-8.8 3.5-17.3 9.8-23.5 6.2-6.3 14.7-9.8 23.5-9.8 8.9 0 17.4 3.5 23.6 9.8 6.3 6.2 9.8 14.7 9.8 23.5v133.4c0 4.3-0.9 8.7-2.6 12.7-1.6 4.1-4.1 7.7-7.2 10.8-3.1 3.1-6.8 5.6-10.8 7.3-4.1 1.6-8.4 2.5-12.8 2.5zm-266.6 0c-4.4 0-8.7-0.9-12.8-2.5-4-1.7-7.7-4.2-10.8-7.3-3.1-3.1-5.6-6.7-7.2-10.8-1.7-4-2.6-8.4-2.6-12.7v-133.4c0-8.8 3.5-17.3 9.8-23.5 6.2-6.3 14.7-9.8 23.6-9.8 8.8 0 17.3 3.5 23.5 9.8 6.3 6.2 9.8 14.7 9.8 23.5v133.4c0 4.3-0.9 8.7-2.5 12.7-1.7 4.1-4.2 7.7-7.3 10.8-3.1 3.1-6.7 5.6-10.8 7.3-4 1.6-8.4 2.5-12.7 2.5z"/>-->
<!--  <path  d="m689.6 762h-144.8c-9.6 0-18.8-3.8-25.6-10.6-6.8-6.8-10.6-16-10.6-25.6 0-9.6 3.8-18.8 10.6-25.6 6.8-6.8 16-10.6 25.6-10.6h144.8v-144.8c0-9.6 3.8-18.8 10.6-25.6 6.8-6.8 16-10.6 25.6-10.6 9.6 0 18.8 3.8 25.6 10.6 6.8 6.8 10.6 16 10.6 25.6v144.8c0 9.5-1.8 19-5.5 27.7-3.6 8.8-8.9 16.8-15.7 23.5-6.7 6.8-14.7 12.1-23.5 15.7-8.7 3.7-18.2 5.5-27.7 5.5zm-398.2-36.2c0-4.7-0.9-9.4-2.8-13.8-1.8-4.4-4.5-8.4-7.8-11.8-3.4-3.3-7.4-6-11.8-7.8-4.4-1.8-9.1-2.8-13.8-2.8h-144.8v-144.8c0-9.6-3.8-18.8-10.6-25.6-6.8-6.8-16-10.6-25.6-10.6-9.6 0-18.8 3.8-25.6 10.6-6.8 6.8-10.6 16-10.6 25.6v144.8c0 9.5 1.8 19 5.5 27.7 3.6 8.8 8.9 16.8 15.7 23.5 6.7 6.8 14.7 12.1 23.5 15.7 8.7 3.7 18.2 5.5 27.7 5.5h144.8c4.7 0 9.4-0.9 13.8-2.7 4.4-1.8 8.4-4.5 11.8-7.9 3.3-3.3 6-7.3 7.8-11.7 1.9-4.4 2.8-9.1 2.8-13.9zm-181-470.6v-144.8h144.8c9.6 0 18.8-3.8 25.6-10.6 6.8-6.8 10.6-16 10.6-25.6 0-9.6-3.8-18.8-10.6-25.6-6.8-6.8-16-10.6-25.6-10.6h-144.8c-9.5 0-19 1.8-27.7 5.5-8.8 3.6-16.8 8.9-23.5 15.7-6.8 6.7-12.1 14.7-15.7 23.5-3.7 8.7-5.5 18.2-5.5 27.7v144.8c0 9.6 3.8 18.8 10.6 25.6 6.8 6.8 16 10.6 25.6 10.6 9.6 0 18.8-3.8 25.6-10.6 6.8-6.8 10.6-16 10.6-25.6zm651.6 0v-144.8c0-9.5-1.8-19-5.5-27.7-3.6-8.8-8.9-16.8-15.7-23.5-6.7-6.8-14.7-12.1-23.5-15.7-8.7-3.7-18.2-5.5-27.7-5.5h-144.8c-9.6 0-18.8 3.8-25.6 10.6-6.8 6.8-10.6 16-10.6 25.6 0 9.6 3.8 18.8 10.6 25.6 6.8 6.8 16 10.6 25.6 10.6h144.8v144.8c0 9.6 3.8 18.8 10.6 25.6 6.8 6.8 16 10.6 25.6 10.6 9.6 0 18.8-3.8 25.6-10.6 6.8-6.8 10.6-16 10.6-25.6z"/>-->

<!--  <path d="m341.9 560.7q-1.1 0-2.2-0.2-1.1-0.2-2.2-0.7-1-0.4-2-1-0.9-0.7-1.7-1.5l-36.5-36.5q-0.8-0.8-1.5-1.7-0.6-1-1-2-0.5-1.1-0.7-2.2-0.2-1.1-0.2-2.2 0-1.2 0.2-2.3 0.2-1.1 0.7-2.1 0.4-1.1 1-2 0.7-1 1.5-1.8 2.4-2.4 4.3-5.2 1.9-2.8 3.2-6 1.3-3.1 1.9-6.5 0.7-3.3 0.7-6.7c0-4.5-0.9-9-2.7-13.2-1.7-4.2-4.2-8-7.4-11.2-3.2-3.2-7.1-5.8-11.2-7.5-4.2-1.8-8.7-2.6-13.3-2.6q-3.4-0.1-6.7 0.6-3.3 0.7-6.5 2-3.1 1.3-6 3.2-2.8 1.9-5.2 4.3-0.8 0.8-1.7 1.4-1 0.6-2 1.1-1.1 0.4-2.2 0.6-1.1 0.2-2.2 0.2-1.2 0-2.3-0.2-1.1-0.2-2.1-0.6-1.1-0.5-2-1.1-1-0.6-1.8-1.4l-36.5-36.5c-1.1-1.1-1.9-2.4-2.5-3.8-0.6-1.4-0.9-2.9-0.9-4.4 0-1.5 0.3-3 0.9-4.4 0.6-1.4 1.4-2.7 2.5-3.7l207.3-207.3c1-1.1 2.3-1.9 3.7-2.5 1.4-0.6 2.9-0.9 4.4-0.9 1.5 0 3 0.3 4.4 0.9 1.4 0.6 2.7 1.4 3.8 2.5l36.5 36.5q0.8 0.8 1.4 1.7 0.6 1 1.1 2 0.4 1.1 0.6 2.2 0.3 1.1 0.3 2.3 0 1.1-0.3 2.2-0.2 1.1-0.6 2.2-0.5 1-1.1 2-0.6 0.9-1.4 1.7-2.4 2.4-4.3 5.2-1.9 2.9-3.2 6-1.3 3.1-2 6.5-0.6 3.3-0.6 6.7c0 4.6 0.9 9 2.6 13.2 1.7 4.2 4.3 8 7.5 11.2 3.2 3.3 7 5.8 11.2 7.5 4.2 1.8 8.7 2.7 13.2 2.7q3.4 0 6.7-0.7 3.4-0.6 6.5-1.9 3.2-1.3 6-3.2 2.8-1.9 5.2-4.3 0.8-0.8 1.8-1.5 0.9-0.6 2-1 1-0.5 2.1-0.7 1.1-0.2 2.3-0.2 1.1 0 2.2 0.2 1.1 0.2 2.2 0.7 1 0.4 2 1 0.9 0.7 1.7 1.5l36.6 36.5c1 1 1.9 2.3 2.5 3.7 0.5 1.4 0.8 2.9 0.8 4.4 0 1.5-0.3 3-0.8 4.4-0.6 1.4-1.5 2.7-2.5 3.8l-207.3 207.2q-0.8 0.8-1.8 1.5-0.9 0.6-2 1-1 0.5-2.1 0.7-1.1 0.2-2.3 0.2zm-21-48.8l21 21 191-191-21-21q-3.5 2.3-7.4 4.1-3.8 1.8-7.8 3-4 1.2-8.2 1.8-4.2 0.6-8.4 0.6c-7.6 0-15-1.5-22-4.4-7-2.9-13.4-7.1-18.7-12.5-5.3-5.3-9.6-11.7-12.5-18.6-2.9-7-4.4-14.5-4.4-22.1q0-4.2 0.6-8.4 0.6-4.1 1.8-8.2 1.3-4 3-7.8 1.8-3.8 4.2-7.3l-21.1-21.1-191 191 21.1 21.1q3.5-2.4 7.3-4.2 3.8-1.8 7.8-3 4.1-1.2 8.2-1.8 4.2-0.6 8.4-0.6c7.6 0 15.1 1.5 22.1 4.4 7 2.9 13.3 7.1 18.6 12.5 5.4 5.3 9.6 11.7 12.5 18.7 2.9 7 4.4 14.4 4.4 22q0 4.2-0.6 8.4-0.6 4.2-1.8 8.2-1.2 4-3 7.8-1.8 3.8-4.1 7.4zm44.1-43.3q-1.2 0-2.3-0.2-1.1-0.3-2.2-0.7-1-0.4-1.9-1-1-0.7-1.8-1.5l-69.1-69.1c-1.1-1-1.9-2.3-2.5-3.7-0.6-1.4-0.9-2.9-0.9-4.4 0-1.5 0.3-3 0.9-4.4 0.6-1.4 1.4-2.7 2.5-3.8l92.1-92.1c1.1-1.1 2.4-1.9 3.8-2.5 1.4-0.6 2.9-0.9 4.4-0.9 1.5 0 3 0.3 4.4 0.9 1.4 0.6 2.7 1.4 3.7 2.5l69.1 69.1c1.1 1.1 2 2.3 2.5 3.7 0.6 1.4 0.9 2.9 0.9 4.4 0 1.6-0.3 3.1-0.9 4.5-0.5 1.4-1.4 2.6-2.5 3.7l-92.1 92.1q-0.8 0.8-1.7 1.5-1 0.6-2 1-1.1 0.4-2.2 0.7-1.1 0.2-2.2 0.2zm-52.9-80.6l52.9 52.8 75.8-75.9-52.8-52.8z"/>-->

<!--  <path class="a" stroke-linecap="round"  stroke="#292d32" stroke-width="40" fill="none"  d="m66.7 300v-83.3c0-83 67-150 150-150h83.3"/>-->
  <path class="a" stroke-linecap="round"  stroke="#222" stroke-width="40" fill="none"  d="m66.7 300v-83.3c0-83 57-150 150-150h83.3"/>
  <path class="a" stroke-linecap="round"  stroke="#222" stroke-width="40" fill="none" d="m500 66.7h83.3c83 0 150 57 150 150v83.3"/>
  <path class="a" stroke-linecap="round"  stroke="#222" stroke-width="40" fill="none" d="m733.3 533.3v50c0 83-57 150-150 150h-50"/>
  <path class="a" stroke-linecap="round"  stroke="#222" stroke-width="40" fill="none" d="m300 733.3h-83.3c-83 0-150-57-150-150v-83.3"/>
<!--  <path class="a" d="m566.7 316.7v166.6q0 100-100 100h-133.4q-100 0-100-100v-166.6q0-100 100-100h133.4q100 0 100 100z"/>-->
<!--  <path class="a" d="m633.3 400h-466.6"/>-->


  <path class="a" transform="scale(0.6)" transform-origin="center" stroke-linecap="round"  stroke="rgb(44, 169, 188)" stroke-width="60" fill="none" d="m650 416.7c0-46 37.3-83.4 83.3-83.4v-33.3c0-133.3-33.3-166.7-166.6-166.7h-333.4c-133.3 0-166.6 33.4-166.6 166.7v16.7c46 0 83.3 37.3 83.3 83.3 0 46-37.3 83.3-83.3 83.3v16.7c0 133.3 33.3 166.7 166.6 166.7h333.4c133.3 0 166.6-33.4 166.6-166.7-46 0-83.3-37.3-83.3-83.3z"/>
  <path class="b" transform="scale(0.6)" transform-origin="center" stroke-linecap="round" stroke-linejoin="round" stroke="rgb(44, 169, 188)" stroke-width="60" fill="none" stroke-dasharray="166.66666666666669,166.66666666666669"   d="m333.3 133.3v533.4"/>
</svg>
