<svg version="1.2" xmlns="http://www.w3.org/2000/svg" viewBox="0 0 800 800" width="800" height="800"><style>.a{fill:none;stroke:#e2e8f0;stroke-linecap:round;stroke-width:40}.b{fill:none;stroke:#2ca9bc;stroke-linecap:round;stroke-width:36}</style><path fill-rule="evenodd" class="a" d="m66.7 300v-83.3c0-83 57-150 150-150h83.3"/><path fill-rule="evenodd" class="a" d="m500 66.7h83.3c83 0 150 57 150 150v83.3"/><path fill-rule="evenodd" class="a" d="m733.3 533.3v50c0 83-57 150-150 150h-50"/><path fill-rule="evenodd" class="a" d="m300 733.3h-83.3c-83 0-150-57-150-150v-83.3"/><path class="b" d="m513.2 301c-19.6-19.5-19.6-51.2-0.1-70.7l-14.1-14.1c-56.6-56.6-84.9-56.6-141.4-0.1l-141.5 141.5c-56.5 56.5-56.5 84.8 0.1 141.4l7.1 7.1c19.5-19.6 51.1-19.6 70.6 0 19.6 19.5 19.6 51.1 0 70.6l7.1 7.1c56.6 56.6 84.9 56.6 141.4 0.1l141.5-141.5c56.5-56.5 56.5-84.8-0.1-141.4-19.5 19.5-51.1 19.5-70.6 0z"/></svg>
